<svg width="532" height="314" viewBox="0 0 532 314" fill="none" xmlns="http://www.w3.org/2000/svg">
<g clip-path="url(#clip0_209_2)">
<path d="M515.026 152.002C515.026 227.375 453.938 288.491 378.564 288.491C303.19 288.491 242.074 227.375 242.074 152.002C242.074 76.6278 303.19 15.5117 378.564 15.5117C453.938 15.5117 515.026 76.6278 515.026 152.002Z" fill="#B6DD69"/>
<path d="M515.026 152.001H513.476C513.476 189.252 498.373 222.98 473.972 247.409C449.542 271.839 415.814 286.941 378.564 286.941C341.286 286.941 307.558 271.839 283.157 247.409C258.727 222.98 243.624 189.252 243.624 152.001C243.624 114.723 258.727 81.0234 283.157 56.5938C307.558 32.1643 341.286 17.0614 378.564 17.0614C415.814 17.0614 449.542 32.1643 473.972 56.5938C498.373 81.0234 513.476 114.723 513.476 152.001H516.576C516.576 75.7824 454.783 13.9619 378.564 13.9619C302.317 13.9619 240.525 75.7824 240.525 152.001C240.525 228.22 302.317 290.013 378.564 290.013C454.783 290.013 516.576 228.22 516.576 152.001H515.026Z" fill="#6EBB00"/>
<path d="M500.909 152.001C500.909 219.57 446.133 274.346 378.564 274.346C310.996 274.346 256.191 219.57 256.191 152.001C256.191 84.4327 310.996 29.6565 378.564 29.6565C446.133 29.6565 500.909 84.4327 500.909 152.001Z" fill="#6EBB00"/>
<path d="M500.909 152.002H499.359C499.359 185.363 485.834 215.541 463.969 237.435C442.104 259.3 411.926 272.797 378.564 272.797C345.203 272.797 314.997 259.3 293.131 237.435C271.266 215.541 257.741 185.363 257.741 152.002C257.741 118.64 271.266 88.4343 293.131 66.5689C314.997 44.7035 345.203 31.2067 378.564 31.2067C411.926 31.2067 442.104 44.7035 463.969 66.5689C485.834 88.4343 499.359 118.64 499.359 152.002H502.459C502.459 83.5597 446.978 28.1072 378.564 28.1072C310.122 28.1072 254.641 83.5597 254.641 152.002C254.641 220.416 310.122 275.896 378.564 275.896C446.978 275.896 502.459 220.416 502.459 152.002H500.909Z" fill="#6EBB00"/>
<path d="M378.564 37.4899C365.208 37.4899 352.416 40.0822 340.61 44.7877L371.914 133.799C375.549 144.196 381.551 144.196 385.186 133.799L416.491 44.7877C404.684 40.0822 391.892 37.4899 378.564 37.4899Z" fill="#B6DD69"/>
<path d="M378.564 37.4898V35.9683C365.011 35.9683 352.021 38.5606 340.018 43.3225C339.257 43.6324 338.863 44.5059 339.144 45.2949L370.449 134.306C371.407 137.039 372.534 139.125 373.858 140.646C374.507 141.407 375.211 142.027 376 142.449C376.789 142.9 377.662 143.126 378.564 143.126C379.438 143.126 380.311 142.9 381.1 142.449C382.283 141.801 383.298 140.759 384.199 139.406C385.129 138.054 385.946 136.335 386.651 134.306L417.956 45.2949C418.237 44.5059 417.843 43.6324 417.082 43.3225C405.079 38.5606 392.089 35.9683 378.564 35.9683V39.0396C391.695 39.0396 404.29 41.5755 415.927 46.2247L416.49 44.7877L415.053 44.2523L383.72 133.292C382.875 135.743 381.861 137.547 380.931 138.617C380.452 139.153 380.001 139.519 379.607 139.744C379.212 139.97 378.874 140.026 378.564 140.026C378.226 140.026 377.888 139.97 377.493 139.744C376.902 139.406 376.197 138.758 375.465 137.688C374.732 136.617 374.028 135.123 373.379 133.292L342.075 44.2523L340.61 44.7877L341.173 46.2247C352.81 41.5755 365.405 39.0396 378.564 39.0396V37.4898Z" fill="#6EBB00"/>
<path d="M378.564 266.485C391.892 266.485 404.684 263.921 416.491 259.215L385.186 170.204C381.551 159.807 375.577 159.807 371.914 170.204L340.61 259.215C352.416 263.921 365.208 266.485 378.564 266.485Z" fill="#B6DD69"/>
<path d="M378.564 266.486V268.035C392.089 268.035 405.079 265.443 417.082 260.653C417.843 260.343 418.237 259.498 417.956 258.709L386.651 169.697C385.693 166.964 384.566 164.851 383.27 163.329C382.593 162.597 381.889 161.977 381.1 161.554C380.311 161.103 379.438 160.85 378.564 160.878C377.662 160.85 376.789 161.103 376.028 161.554C374.816 162.202 373.802 163.245 372.9 164.597C371.971 165.95 371.182 167.64 370.449 169.697L339.144 258.709C338.863 259.498 339.257 260.343 340.018 260.653C352.021 265.443 365.011 268.035 378.564 268.035V264.936C365.405 264.936 352.81 262.4 341.173 257.779L340.61 259.216L342.075 259.723L373.379 170.712C374.253 168.232 375.239 166.457 376.169 165.386C376.648 164.823 377.099 164.485 377.493 164.259C377.888 164.034 378.226 163.949 378.564 163.949C378.874 163.949 379.212 164.034 379.607 164.259C380.198 164.569 380.931 165.245 381.635 166.316C382.368 167.387 383.072 168.852 383.72 170.712L415.053 259.723L416.49 259.216L415.927 257.779C404.29 262.4 391.695 264.936 378.564 264.936V266.486Z" fill="#6EBB00"/>
<path d="M493.048 152.002C493.048 138.646 490.484 125.881 485.778 114.047L396.767 145.352C386.369 149.015 386.369 154.988 396.767 158.651L485.778 189.956C490.484 178.122 493.048 165.329 493.048 152.002Z" fill="#B6DD69"/>
<path d="M493.048 152.002H494.597C494.597 138.449 491.977 125.487 487.215 113.484C486.905 112.695 486.06 112.328 485.271 112.582L396.231 143.887C393.526 144.845 391.413 145.972 389.891 147.296C389.131 147.944 388.539 148.677 388.088 149.466C387.665 150.255 387.412 151.1 387.412 152.002C387.412 152.875 387.665 153.749 388.088 154.538C388.736 155.721 389.779 156.736 391.159 157.665C392.512 158.567 394.203 159.384 396.231 160.089L485.271 191.422C486.06 191.675 486.905 191.309 487.215 190.52C491.977 178.516 494.597 165.555 494.597 152.002H491.498C491.498 165.132 488.962 177.727 484.341 189.393L485.778 189.956L486.285 188.491L397.274 157.186C394.794 156.313 393.019 155.327 391.92 154.369C391.385 153.89 391.019 153.439 390.821 153.044C390.596 152.65 390.511 152.312 390.511 152.002C390.511 151.664 390.596 151.354 390.821 150.931C391.131 150.339 391.807 149.635 392.878 148.902C393.949 148.198 395.414 147.465 397.274 146.817L486.285 115.512L485.778 114.047L484.341 114.611C488.962 126.276 491.498 138.843 491.498 152.002H493.048Z" fill="#6EBB00"/>
<path d="M264.052 152.002C264.052 165.329 266.617 178.122 271.322 189.956L360.362 158.651C370.731 154.988 370.731 149.015 360.362 145.352L271.322 114.047C266.617 125.881 264.052 138.646 264.052 152.002Z" fill="#B6DD69"/>
<path d="M264.053 152.002H262.503C262.503 165.555 265.123 178.516 269.885 190.52C270.195 191.309 271.069 191.675 271.829 191.422L360.869 160.089C363.574 159.131 365.687 158.032 367.209 156.707C367.97 156.031 368.59 155.327 369.012 154.538C369.435 153.749 369.688 152.875 369.688 152.002C369.688 151.128 369.435 150.255 369.012 149.466C368.364 148.282 367.322 147.268 365.969 146.338C364.588 145.437 362.898 144.619 360.869 143.887L271.829 112.582C271.04 112.328 270.195 112.695 269.885 113.484C265.123 125.487 262.503 138.449 262.503 152.002H265.602C265.602 138.843 268.138 126.276 272.759 114.611L271.322 114.047L270.815 115.512L359.826 146.817C362.306 147.691 364.081 148.677 365.18 149.635C365.715 150.086 366.082 150.537 366.279 150.931C366.504 151.354 366.589 151.664 366.589 152.002C366.589 152.312 366.504 152.65 366.279 153.044C365.969 153.636 365.321 154.369 364.222 155.073C363.151 155.806 361.686 156.538 359.826 157.186L270.815 188.491L271.322 189.956L272.759 189.393C268.138 177.727 265.602 165.132 265.602 152.002H264.053Z" fill="#6EBB00"/>
<path d="M298.936 69.7245C289.327 79.0229 281.945 89.7584 276.704 101.339L361.123 143.548C370.985 148.451 375.267 144.309 370.675 134.306L331.255 48.5635C319.477 53.4099 308.516 60.4542 298.936 69.7245Z" fill="#B6DD69"/>
<path d="M298.936 69.7243L297.837 68.6254C288.116 78.0366 280.592 88.9411 275.295 100.719C274.957 101.452 275.267 102.353 276.028 102.72L360.418 144.929C363.377 146.394 365.913 147.155 368.11 147.155C368.984 147.155 369.773 147.042 370.534 146.76C371.633 146.394 372.591 145.605 373.182 144.619C373.802 143.605 374.056 142.393 374.056 141.097C374.056 138.984 373.38 136.504 372.083 133.658L332.664 47.9153C332.297 47.1545 331.424 46.8164 330.663 47.1263C318.716 52.0573 307.586 59.1861 297.837 68.6254L300.006 70.8514C309.446 61.6939 320.238 54.7623 331.847 50.0004L331.255 48.5633L329.846 49.2114L369.266 134.954C370.449 137.547 370.956 139.66 370.956 141.097C370.956 141.689 370.872 142.168 370.759 142.534C370.562 143.097 370.308 143.407 369.942 143.633C369.547 143.886 368.984 144.055 368.11 144.055C366.673 144.055 364.476 143.492 361.799 142.139L277.408 99.9583L276.704 101.339L278.113 101.987C283.269 90.5472 290.567 79.9808 300.006 70.8514L298.936 69.7243Z" fill="#6EBB00"/>
<path d="M458.193 234.279C467.773 224.98 475.156 214.245 480.396 202.636L395.978 160.455C386.144 155.552 381.833 159.694 386.454 169.697L425.846 255.44C437.624 250.593 448.585 243.549 458.193 234.279Z" fill="#B6DD69"/>
<path d="M458.192 234.278L459.263 235.377C468.984 225.966 476.508 215.062 481.805 203.283C482.143 202.523 481.833 201.621 481.1 201.255L396.682 159.074C393.723 157.608 391.187 156.848 388.99 156.848C388.144 156.848 387.327 156.96 386.595 157.214C385.467 157.608 384.509 158.369 383.918 159.384C383.298 160.398 383.044 161.581 383.044 162.878C383.044 165.019 383.72 167.47 385.045 170.344L424.465 256.087C424.803 256.848 425.676 257.186 426.437 256.876C438.384 251.945 449.542 244.788 459.263 235.377L458.192 234.278L457.122 233.151C447.654 242.281 436.862 249.24 425.282 254.002L425.845 255.439L427.254 254.791L387.862 169.048C386.651 166.456 386.144 164.343 386.144 162.878C386.144 162.286 386.228 161.807 386.341 161.469C386.538 160.905 386.792 160.595 387.186 160.342C387.553 160.116 388.144 159.947 388.99 159.947C390.455 159.919 392.624 160.511 395.301 161.835L479.72 204.044L480.396 202.635L478.987 202.016C473.831 213.427 466.561 224.022 457.122 233.151L458.192 234.278Z" fill="#6EBB00"/>
<path d="M460.813 72.3732C451.543 62.7648 440.807 55.3824 429.198 50.1415L387.017 134.56C382.086 144.422 386.257 148.705 396.259 144.112L482.002 104.692C477.156 92.9425 470.112 81.9534 460.813 72.3732Z" fill="#B6DD69"/>
<path d="M460.813 72.3734L461.94 71.3027C452.529 61.5534 441.596 54.0583 429.847 48.7328C429.086 48.3947 428.184 48.7047 427.818 49.4654L385.637 133.856C384.172 136.814 383.411 139.35 383.383 141.576C383.383 142.422 383.495 143.211 383.777 143.971C384.172 145.07 384.932 146.028 385.947 146.648C386.961 147.24 388.144 147.494 389.441 147.494C391.582 147.494 394.034 146.817 396.908 145.521L482.65 106.101C483.383 105.735 483.749 104.862 483.411 104.101C478.508 92.1537 471.351 81.0238 461.94 71.3027L460.813 72.3734L459.714 73.4441C468.844 82.8835 475.775 93.7035 480.565 105.284L482.002 104.693L481.354 103.284L395.611 142.703C393.019 143.887 390.906 144.422 389.441 144.394C388.849 144.394 388.37 144.338 388.004 144.197C387.468 144 387.158 143.746 386.905 143.38C386.679 142.985 386.482 142.422 386.482 141.576C386.482 140.111 387.046 137.941 388.398 135.265L430.579 50.8461L429.199 50.1417L428.579 51.5787C439.99 56.707 450.557 64.0048 459.714 73.4441L460.813 72.3734Z" fill="#6EBB00"/>
<path d="M296.287 231.63C305.557 241.21 316.293 248.621 327.902 253.834L370.083 169.443C375.014 159.581 370.844 155.299 360.841 159.891L275.126 199.311C279.973 211.061 286.989 222.05 296.287 231.63Z" fill="#B6DD69"/>
<path d="M296.287 231.63L295.16 232.7C304.599 242.422 315.504 249.945 327.254 255.242C328.015 255.608 328.916 255.27 329.283 254.538L371.492 170.119C372.957 167.161 373.718 164.625 373.718 162.427C373.718 161.581 373.605 160.764 373.323 160.032C372.929 158.905 372.168 157.947 371.154 157.355C370.139 156.763 368.956 156.481 367.66 156.481C365.518 156.51 363.067 157.158 360.221 158.482L274.478 197.902C273.717 198.24 273.379 199.142 273.689 199.902C278.592 211.821 285.749 222.979 295.16 232.7L297.386 230.559C288.257 221.12 281.325 210.3 276.563 198.719L275.126 199.311L275.774 200.719L361.489 161.3C364.081 160.088 366.223 159.581 367.66 159.581C368.251 159.581 368.73 159.665 369.097 159.806C369.632 159.975 369.942 160.229 370.196 160.623C370.449 161.018 370.618 161.581 370.618 162.427C370.618 163.892 370.055 166.062 368.702 168.738L326.521 253.157L327.902 253.833L328.55 252.424C317.11 247.268 306.544 239.998 297.386 230.559L296.287 231.63Z" fill="#6EBB00"/>
<path d="M289.947 152.002C289.947 227.375 228.831 288.491 153.458 288.491C78.0839 288.491 16.996 227.375 16.996 152.002C16.996 76.6278 78.0839 15.5117 153.458 15.5117C228.831 15.5117 289.947 76.6278 289.947 152.002Z" fill="#F8AC55"/>
<path d="M289.947 152.001H288.398C288.398 189.252 273.295 222.98 248.865 247.409C224.464 271.839 190.736 286.941 153.458 286.941C116.208 286.941 82.4796 271.839 58.05 247.409C33.6487 222.98 18.5458 189.252 18.5458 152.001C18.5458 114.723 33.6487 81.0234 58.05 56.5938C82.4796 32.1643 116.208 17.0614 153.458 17.0614C190.736 17.0614 224.464 32.1643 248.865 56.5938C273.295 81.0234 288.398 114.723 288.398 152.001H291.497C291.497 75.7824 229.705 13.9619 153.458 13.9619C77.2386 13.9619 15.4463 75.7824 15.4463 152.001C15.4463 228.22 77.2386 290.013 153.458 290.013C229.705 290.013 291.497 228.22 291.497 152.001H289.947Z" fill="#DF7700"/>
<path d="M275.83 152.001C275.83 219.57 221.026 274.346 153.457 274.346C85.8887 274.346 31.1124 219.57 31.1124 152.001C31.1124 84.4327 85.8887 29.6565 153.457 29.6565C221.026 29.6565 275.83 84.4327 275.83 152.001Z" fill="#DF7700"/>
<path d="M275.83 152.002H274.281C274.281 185.363 260.756 215.541 238.89 237.435C217.025 259.3 186.819 272.797 153.457 272.797C120.096 272.797 89.9181 259.3 68.0526 237.435C46.1872 215.541 32.6622 185.363 32.6622 152.002C32.6622 118.64 46.1872 88.4343 68.0526 66.5689C89.9181 44.7035 120.096 31.2067 153.457 31.2067C186.819 31.2067 217.025 44.7035 238.89 66.5689C260.756 88.4343 274.281 118.64 274.281 152.002H277.38C277.38 83.5597 221.9 28.1072 153.457 28.1072C85.0434 28.1072 29.5627 83.5597 29.5627 152.002C29.5627 220.416 85.0434 275.896 153.457 275.896C221.9 275.896 277.38 220.416 277.38 152.002H275.83Z" fill="#DF7700"/>
<path d="M153.457 37.4899C140.13 37.4899 127.337 40.0822 115.503 44.7877L146.836 133.799C150.471 144.196 156.444 144.196 160.107 133.799L191.412 44.7877C179.578 40.0822 166.813 37.4899 153.457 37.4899Z" fill="#F8AC55"/>
<path d="M153.457 37.4898V35.9683C139.932 35.9683 126.943 38.5606 114.939 43.3225C114.179 43.6324 113.784 44.5059 114.066 45.2949L145.371 134.306C146.329 137.039 147.456 139.125 148.752 140.646C149.428 141.407 150.132 142.027 150.921 142.449C151.71 142.9 152.584 143.126 153.457 143.126C154.359 143.126 155.204 142.9 155.993 142.449C157.177 141.801 158.219 140.759 159.121 139.406C160.051 138.054 160.84 136.335 161.572 134.306L192.877 45.2949C193.159 44.5059 192.764 43.6324 191.975 43.3225C180 38.5606 167.011 35.9683 153.457 35.9683V39.0396C166.616 39.0396 179.183 41.5755 190.848 46.2247L191.412 44.7877L189.947 44.2523L158.642 133.292C157.768 135.743 156.782 137.547 155.824 138.617C155.373 139.153 154.923 139.519 154.528 139.744C154.105 139.97 153.795 140.026 153.457 140.026C153.147 140.026 152.809 139.97 152.415 139.744C151.823 139.406 151.09 138.758 150.386 137.688C149.653 136.617 148.949 135.123 148.273 133.292L116.968 44.2523L115.503 44.7877L116.095 46.2247C127.732 41.5755 140.327 39.0396 153.457 39.0396V37.4898Z" fill="#DF7700"/>
<path d="M153.457 266.485C166.813 266.485 179.578 263.921 191.412 259.215L160.107 170.204C156.444 159.807 150.471 159.807 146.836 170.204L115.503 259.215C127.337 263.921 140.13 266.485 153.457 266.485Z" fill="#F8AC55"/>
<path d="M153.457 266.486V268.035C167.011 268.035 180 265.443 191.975 260.653C192.764 260.343 193.159 259.498 192.877 258.709L161.572 169.697C160.614 166.964 159.487 164.851 158.163 163.329C157.515 162.597 156.81 161.977 155.993 161.554C155.233 161.103 154.359 160.85 153.457 160.878C152.584 160.85 151.71 161.103 150.921 161.554C149.738 162.202 148.724 163.245 147.822 164.597C146.892 165.95 146.075 167.64 145.371 169.697L114.066 258.709C113.784 259.498 114.179 260.343 114.939 260.653C126.943 265.443 139.904 268.035 153.457 268.035V264.936C140.327 264.936 127.732 262.4 116.095 257.779L115.503 259.216L116.968 259.723L148.273 170.712C149.146 168.232 150.161 166.457 151.09 165.386C151.57 164.823 152.02 164.485 152.415 164.259C152.809 164.034 153.147 163.949 153.457 163.949C153.795 163.949 154.134 164.034 154.528 164.259C155.12 164.569 155.824 165.245 156.557 166.316C157.261 167.387 157.994 168.852 158.642 170.712L189.947 259.723L191.412 259.216L190.848 257.779C179.183 262.4 166.616 264.936 153.457 264.936V266.486Z" fill="#DF7700"/>
<path d="M267.969 152.002C267.969 138.646 265.377 125.881 260.699 114.047L171.66 145.352C161.291 149.015 161.291 154.988 171.66 158.651L260.699 189.956C265.377 178.122 267.969 165.329 267.969 152.002Z" fill="#F8AC55"/>
<path d="M267.969 152.002H269.519C269.519 138.449 266.898 125.487 262.136 113.484C261.827 112.695 260.953 112.328 260.192 112.582L171.153 143.887C168.448 144.845 166.334 145.972 164.813 147.296C164.052 147.944 163.432 148.677 163.01 149.466C162.587 150.255 162.333 151.1 162.333 152.002C162.333 152.875 162.587 153.749 163.01 154.538C163.658 155.721 164.7 156.736 166.053 157.665C167.433 158.567 169.124 159.384 171.153 160.089L260.192 191.422C260.953 191.675 261.827 191.309 262.136 190.52C266.898 178.516 269.519 165.555 269.519 152.002H266.419C266.419 165.132 263.883 177.727 259.262 189.393L260.699 189.956L261.207 188.491L172.195 157.186C169.716 156.313 167.912 155.327 166.842 154.369C166.306 153.89 165.94 153.439 165.715 153.044C165.517 152.65 165.433 152.312 165.433 152.002C165.433 151.664 165.517 151.354 165.715 150.931C166.053 150.339 166.701 149.635 167.8 148.902C168.87 148.198 170.336 147.465 172.195 146.817L261.207 115.512L260.699 114.047L259.262 114.611C263.883 126.276 266.419 138.843 266.419 152.002H267.969Z" fill="#DF7700"/>
<path d="M38.9739 152.002C38.9739 165.329 41.538 178.122 46.2436 189.956L135.255 158.651C145.652 154.988 145.652 149.015 135.255 145.352L46.2436 114.047C41.538 125.881 38.9739 138.646 38.9739 152.002Z" fill="#F8AC55"/>
<path d="M38.9739 152.002H37.4242C37.4242 165.555 40.0447 178.516 44.8066 190.52C45.1165 191.309 45.9619 191.675 46.7508 191.422L135.762 160.089C138.495 159.131 140.609 158.032 142.13 156.707C142.891 156.031 143.483 155.327 143.934 154.538C144.356 153.749 144.61 152.875 144.61 152.002C144.61 151.128 144.356 150.255 143.934 149.466C143.257 148.282 142.243 147.268 140.862 146.338C139.51 145.437 137.819 144.619 135.762 143.887L46.7508 112.582C45.9619 112.328 45.1165 112.695 44.8066 113.484C40.0447 125.487 37.4242 138.449 37.4242 152.002H40.5237C40.5237 138.843 43.0596 126.276 47.6807 114.611L46.2436 114.047L45.7364 115.512L134.748 146.817C137.227 147.691 139.003 148.677 140.073 149.635C140.637 150.086 140.975 150.537 141.2 150.931C141.426 151.354 141.51 151.664 141.51 152.002C141.51 152.312 141.426 152.65 141.2 153.044C140.89 153.636 140.214 154.369 139.143 155.073C138.073 155.806 136.608 156.538 134.748 157.186L45.7364 188.491L46.2436 189.956L47.6807 189.393C43.0596 177.727 40.5237 165.132 40.5237 152.002H38.9739Z" fill="#DF7700"/>
<path d="M73.829 69.7245C64.2488 79.0229 56.8664 89.7584 51.6255 101.339L136.044 143.548C145.878 148.451 150.161 144.309 145.568 134.306L106.148 48.5635C94.3983 53.4099 83.4374 60.4542 73.829 69.7245Z" fill="#F8AC55"/>
<path d="M73.8293 69.7243L72.7586 68.6254C63.0375 78.0366 55.5142 88.9411 50.2169 100.719C49.8788 101.452 50.1888 102.353 50.9214 102.72L135.34 144.929C138.299 146.394 140.834 147.155 143.032 147.155C143.878 147.155 144.695 147.042 145.427 146.76C146.554 146.394 147.512 145.605 148.104 144.619C148.724 143.605 148.978 142.393 148.978 141.097C148.978 138.984 148.301 136.504 146.977 133.658L107.557 47.9153C107.219 47.1545 106.346 46.8164 105.557 47.1263C93.6378 52.0573 82.4797 59.1861 72.7586 68.6254L74.9001 70.8514C84.3676 61.6939 95.1594 54.7623 106.74 50.0004L106.148 48.5633L104.74 49.2114L144.159 134.954C145.371 137.547 145.878 139.66 145.878 141.097C145.878 141.689 145.794 142.168 145.681 142.534C145.484 143.097 145.23 143.407 144.836 143.633C144.469 143.886 143.878 144.055 143.032 144.055C141.567 144.055 139.397 143.492 136.721 142.139L52.302 99.9583L51.6258 101.339L53.0346 101.987C58.191 90.5472 65.4607 79.9808 74.9001 70.8514L73.8293 69.7243Z" fill="#DF7700"/>
<path d="M233.086 234.279C242.694 224.98 250.077 214.245 255.318 202.636L170.899 160.455C161.065 155.552 156.754 159.694 161.347 169.697L200.767 255.44C212.545 250.593 223.506 243.549 233.086 234.279Z" fill="#F8AC55"/>
<path d="M233.086 234.278L234.185 235.377C243.906 225.966 251.401 215.062 256.727 203.283C257.065 202.523 256.755 201.621 255.994 201.255L171.604 159.074C168.645 157.608 166.109 156.848 163.911 156.848C163.038 156.848 162.249 156.96 161.488 157.214C160.389 157.608 159.431 158.369 158.811 159.384C158.219 160.398 157.966 161.581 157.966 162.878C157.966 165.019 158.642 167.47 159.938 170.344L199.358 256.087C199.724 256.848 200.598 257.186 201.359 256.876C213.306 251.945 224.436 244.788 234.185 235.377L233.086 234.278L232.015 233.151C222.576 242.281 211.784 249.24 200.175 254.002L200.767 255.439L202.176 254.791L162.756 169.048C161.572 166.456 161.065 164.343 161.065 162.878C161.065 162.286 161.15 161.807 161.263 161.469C161.46 160.905 161.713 160.595 162.08 160.342C162.474 160.116 163.038 159.947 163.911 159.947C165.348 159.919 167.518 160.511 170.195 161.835L254.613 204.044L255.318 202.635L253.909 202.016C248.752 213.427 241.455 224.022 232.015 233.151L233.086 234.278Z" fill="#DF7700"/>
<path d="M235.735 72.3732C226.464 62.7648 215.701 55.3824 204.12 50.1415L161.911 134.56C157.008 144.422 161.15 148.705 171.153 144.112L256.896 104.692C252.049 92.9425 245.005 81.9534 235.735 72.3732Z" fill="#F8AC55"/>
<path d="M235.734 72.3734L236.862 71.3027C227.422 61.5534 216.518 54.0583 204.74 48.7328C204.007 48.3947 203.105 48.7047 202.739 49.4654L160.53 133.856C159.065 136.814 158.304 139.35 158.304 141.576C158.304 142.422 158.417 143.211 158.698 143.971C159.093 145.07 159.854 146.028 160.868 146.648C161.854 147.24 163.066 147.494 164.362 147.494C166.475 147.494 168.955 146.817 171.801 145.521L257.544 106.101C258.304 105.735 258.642 104.862 258.332 104.101C253.43 92.1537 246.273 81.0238 236.862 71.3027L234.607 73.4441C243.765 82.8835 250.696 93.7035 255.458 105.284L256.895 104.693L256.247 103.284L170.505 142.703C167.912 143.887 165.799 144.422 164.362 144.394C163.77 144.394 163.291 144.338 162.925 144.197C162.361 144 162.08 143.746 161.826 143.38C161.572 142.985 161.403 142.422 161.403 141.576C161.403 140.111 161.967 137.941 163.319 135.265L205.5 50.8461L204.12 50.1417L203.472 51.5787C214.912 56.707 225.478 64.0048 234.607 73.4441L235.734 72.3734Z" fill="#DF7700"/>
<path d="M71.2086 231.63C80.4788 241.21 91.2143 248.621 102.823 253.834L145.004 169.443C149.935 159.581 145.765 155.299 135.762 159.891L50.0194 199.311C54.8659 211.061 61.9101 222.05 71.2086 231.63Z" fill="#F8AC55"/>
<path d="M71.2085 231.63L70.0814 232.7C79.4926 242.422 90.3971 249.945 102.175 255.242C102.936 255.608 103.838 255.27 104.204 254.538L146.385 170.119C147.85 167.161 148.611 164.625 148.639 162.427C148.639 161.581 148.498 160.764 148.245 160.032C147.85 158.905 147.089 157.947 146.075 157.355C145.061 156.763 143.877 156.481 142.581 156.481C140.44 156.51 137.988 157.158 135.114 158.482L49.3713 197.902C48.6387 198.24 48.2724 199.142 48.6105 199.902C53.5133 211.821 60.6703 222.979 70.0814 232.7L72.3074 230.559C63.1781 221.12 56.2465 210.3 51.4564 198.719L50.0194 199.311L50.6674 200.719L136.41 161.3C139.003 160.088 141.116 159.581 142.581 159.581C143.173 159.581 143.652 159.665 144.018 159.806C144.553 159.975 144.863 160.229 145.117 160.623C145.342 161.018 145.54 161.581 145.54 162.427C145.54 163.892 144.976 166.062 143.624 168.738L101.443 253.157L102.823 253.833L103.443 252.424C92.0314 247.268 81.465 239.998 72.3074 230.559L71.2085 231.63Z" fill="#DF7700"/>
</g>
<defs>
<clipPath id="clip0_209_2">
<rect width="532" height="314" fill="white"/>
</clipPath>
</defs>
</svg>
